<?xml version="1.0" encoding="iso-8859-1"?>
<!-- Uploaded to: SVG Repo, www.svgrepo.com, Generator: SVG Repo Mixer Tools -->
<svg height="800px" width="800px" version="1.1" id="Layer_1" xmlns="http://www.w3.org/2000/svg" xmlns:xlink="http://www.w3.org/1999/xlink" 
	 viewBox="0 0 512 512" xml:space="preserve">
<circle style="fill:#40495D;" cx="256" cy="256" r="256"/>
<path style="fill:#343D4C;" d="M256,0c-11.317,0-22.461,0.744-33.391,2.167C348.216,18.53,445.217,125.933,445.217,256
	s-97.002,237.47-222.609,253.833C233.539,511.256,244.683,512,256,512c141.385,0,256-114.616,256-256S397.385,0,256,0z"/>
<path style="fill:#FFFFFF;" d="M278.468,423.513c-49.397,0.109-89.807-41.383-89.807-90.78V234.35c0-0.03-0.024-0.053-0.053-0.053
	h-73.527c-2.393,0-4.333-1.94-4.333-4.333v-70.342c0-2.232,1.695-4.098,3.917-4.313l4.088-0.394
	c36.841-3.554,65.998-32.712,69.553-69.553l0.394-4.088c0.215-2.222,2.081-3.917,4.313-3.917h59.211c2.393,0,4.333,1.94,4.333,4.333
	v73.527c0,0.03,0.024,0.053,0.053,0.053h73.527c2.393,0,4.333,1.94,4.333,4.333v70.36c0,2.393-1.94,4.333-4.333,4.333H256.61
	c-0.03,0-0.053,0.024-0.053,0.053v98.987c0,11.575,8.822,21.551,20.376,22.241c7.854,0.469,15.218-3.246,19.464-9.73l4.848-7.403
	c0.838-1.28,2.671-1.394,3.661-0.227l42.488,50.045c0.757,0.892,0.72,2.209-0.085,3.058l-4.087,4.307
	C326.214,413.56,303.224,423.457,278.468,423.513z"/>
</svg>